<?xml version="1.0" encoding="utf-8"?>
<!-- Generator: Adobe Illustrator 21.1.0, SVG Export Plug-In . SVG Version: 6.00 Build 0)  -->
<svg version="1.1" id="Lager_1" xmlns="http://www.w3.org/2000/svg" xmlns:xlink="http://www.w3.org/1999/xlink" x="0px" y="0px"
	 viewBox="0 0 640 480" style="enable-background:new 0 0 640 480;" xml:space="preserve">
<style type="text/css">
	.st0{fill:#020202;}
	.st1{stroke:#000000;stroke-width:6;stroke-miterlimit:10;}
	.st2{font-family:'SegoeUIEmoji';}
	.st3{font-size:101px;}
</style>
<g>
	<g>
		<path class="st0" d="M307.7,303.1c-2.1,0-4.1,0-6.1,0c-56.3,0-112.6,0-168.9,0c-8.5,0-16.2-2.1-22.3-8.3
			c-6.1-6.1-8.5-13.7-8.5-22.2c0-59.5,0-119,0-178.4c0-18.4,12.1-30.3,30.5-30.3c125.3,0,250.6,0,375.9,0c3.7,0,7.4-0.2,11,0.3
			c14.9,2.1,24.7,13.6,24.8,29.1c0.1,20.7,0,41.3,0,62c0,38.7,0,77.3,0,116c0,20.4-11.4,31.8-32,31.8c-39.3,0-78.6,0.1-118-0.1
			c-4.2,0-5.8,1.2-6.6,5.3c-2.2,12.1-0.3,23.9,3,35.5c4.7,16.6,11.9,32.1,20.3,47c0.9,1.6,2.4,3.2,2.5,4.8c0.2,3,0.5,6.8-1.1,8.7
			c-1.6,1.9-5.6,3.1-8.3,2.7c-4.3-0.7-8.5-2.7-12.6-4.7C350.4,382.4,323,350.5,309,307C308.6,305.8,308.2,304.5,307.7,303.1z
			 M386.8,381.2c0.3,0.1,0.6,0.3,0.9,0.4c-0.2-0.3-0.3-0.5-0.5-0.8c-0.5-1.5-1.1-3.1-1.6-4.6c-3.7-10.3-8.1-20.4-11-31
			c-4.4-15.6-6-31.4-0.5-47.2c3.2-9.3,6-11.2,15.7-11.2c41,0,82,0,123,0c11.2,0,15.3-4.2,15.3-15.4c0-58.7,0-117.3,0-176
			c0-11.3-4.1-15.4-15.3-15.4c-126.1,0-252.3,0-378.4,0c-12.3,0-16.1,3.8-16.1,16.1c0,58.3,0,116.6,0,175c0,11.8,4,15.7,16,15.7
			c58,0,116,0,174,0c10.3,0,12.4,1.6,15.2,11.4c5.2,18.1,13.2,34.8,25,49.6C358.9,361.4,371.3,373.1,386.8,381.2z"/>
	</g>
</g>
<text transform="matrix(1 0 0 1 124 207.6665)" class="st1 st2 st3">Click me!</text>
</svg>
